<svg width="159" height="123" viewBox="0 0 159 123" fill="none" xmlns="http://www.w3.org/2000/svg">
<g filter="url(#filter0_d_5_46)">
<path d="M41 62.5C41 68.8513 35.8513 74 29.5 74C23.1487 74 18 68.8513 18 62.5C18 56.1487 23.1487 51 29.5 51C35.8513 51 41 56.1487 41 62.5Z" stroke="black" stroke-width="2" shape-rendering="crispEdges"/>
</g>
<g style="mix-blend-mode:exclusion" filter="url(#filter1_i_5_46)">
<path d="M1.3365 109.64L3.3525 109.096V96.84C3.3525 96.2853 3.30984 95.9227 3.2245 95.752C3.1605 95.56 2.95784 95.3893 2.6165 95.24L1.2725 94.472L1.3685 91.432H11.3525L11.5125 94.696L9.1445 95.336V101.352L14.7445 95.304C14.8298 95.2187 14.8725 95.1013 14.8725 94.952C14.8725 94.8453 14.8405 94.7493 14.7765 94.664L13.8485 93.544L14.2005 91.432H21.6245L22.0085 93.608L14.6805 101.448L22.5205 111.56V113H16.4085L9.1445 103.368V107.816C9.1445 108.285 9.1765 108.605 9.2405 108.776C9.32584 108.947 9.5285 109.117 9.8485 109.288L11.5445 110.248L11.4165 113H1.4965L1.3365 109.64ZM25.077 110.152L26.069 109.544L33.557 91.4L38.997 90.92L45.397 108.2C45.6103 108.755 45.7597 109.117 45.845 109.288C45.9303 109.459 46.0903 109.693 46.325 109.992L46.901 110.728L46.709 113H37.717L37.397 109.96L39.669 109.384L38.645 106.152L32.149 106.248L31.445 108.264C31.381 108.456 31.349 108.616 31.349 108.744C31.349 108.893 31.3703 109.011 31.413 109.096C31.477 109.16 31.573 109.213 31.701 109.256L33.909 110.184L33.589 113H25.205L25.077 110.152ZM35.541 96.392L33.429 102.536L37.557 102.728L35.541 96.392ZM49.4903 109.64L51.5063 109.096V96.84C51.5063 96.2853 51.4636 95.9227 51.3783 95.752C51.3143 95.56 51.1116 95.3893 50.7703 95.24L49.4263 94.472L49.5223 91.432H59.5063L59.6663 94.696L57.2983 95.336V109.16L61.3303 109.064L64.0503 105.96L66.5143 106.088C66.4716 107.88 66.3223 110.184 66.0663 113H49.6503L49.4903 109.64ZM69.6178 109.736L71.9538 109.096V96.84C71.9538 96.2853 71.9111 95.9227 71.8258 95.752C71.7404 95.56 71.5164 95.3893 71.1538 95.24L69.4898 94.28L69.6497 91.432H79.9218L80.0498 94.696L77.7458 95.336V107.816C77.7458 108.328 77.7778 108.659 77.8418 108.808C77.9271 108.957 78.1298 109.107 78.4498 109.256L80.0818 110.248L79.9858 113H69.7778L69.6178 109.736ZM89.576 98.856L88.872 108.328V108.456C88.872 108.861 89.0213 109.128 89.32 109.256L91.304 110.088L90.984 113H83.016L82.696 110.152L84.168 109.256L85.992 96.904C86.0133 96.7547 86.024 96.5733 86.024 96.36C86.024 96.104 85.96 95.912 85.832 95.784C85.7253 95.656 85.512 95.496 85.192 95.304L83.72 94.472L83.912 91.432H93.096L97.672 106.344L102.216 91.432H110.792L110.92 94.792L108.872 95.304L110.6 107.848C110.664 108.275 110.749 108.605 110.856 108.84C110.984 109.075 111.261 109.459 111.688 109.992L112.36 110.856L112.168 113H102.632L102.344 110.056L104.968 109.384L103.88 98.664L99.784 113.128L94.312 113.608L89.576 98.856ZM122.285 113.128C119.981 113.128 117.677 113.043 115.373 112.872L115.213 109.736L117.549 109.096V96.904C117.549 96.3493 117.506 95.9867 117.421 95.816C117.335 95.624 117.111 95.4533 116.749 95.304L115.085 94.376L115.277 91.72C118.733 91.272 121.698 91.048 124.173 91.048C127.202 91.048 129.421 91.496 130.829 92.392C132.237 93.288 132.941 94.7067 132.941 96.648C132.941 97.608 132.791 98.4613 132.493 99.208C132.194 99.9333 131.735 100.595 131.117 101.192C133.25 102.152 134.317 103.709 134.317 105.864C134.317 107.784 133.783 109.331 132.717 110.504C131.65 111.677 130.082 112.445 128.013 112.808C127.245 113.021 125.335 113.128 122.285 113.128ZM126.989 100.168C127.202 99.6133 127.309 98.6853 127.309 97.384C127.309 96.488 127.095 95.8267 126.669 95.4C126.263 94.9733 125.634 94.7387 124.781 94.696C124.226 94.696 123.671 94.7173 123.117 94.76V100.104C123.479 100.083 123.949 100.072 124.525 100.072C125.399 100.072 126.221 100.104 126.989 100.168ZM125.645 109.16C126.861 109.16 127.725 109.053 128.237 108.84C128.45 107.987 128.557 107.229 128.557 106.568C128.557 105.501 128.279 104.744 127.725 104.296C127.17 103.848 126.231 103.624 124.909 103.624C124.631 103.624 124.279 103.645 123.853 103.688L123.117 103.72V108.936C123.863 109.085 124.706 109.16 125.645 109.16ZM136.258 110.152L137.25 109.544L144.738 91.4L150.178 90.92L156.578 108.2C156.792 108.755 156.941 109.117 157.026 109.288C157.112 109.459 157.272 109.693 157.506 109.992L158.082 110.728L157.89 113H148.898L148.578 109.96L150.85 109.384L149.826 106.152L143.33 106.248L142.626 108.264C142.562 108.456 142.53 108.616 142.53 108.744C142.53 108.893 142.552 109.011 142.594 109.096C142.658 109.16 142.754 109.213 142.882 109.256L145.09 110.184L144.77 113H136.386L136.258 110.152ZM146.722 96.392L144.61 102.536L148.738 102.728L146.722 96.392Z" fill="white"/>
</g>
<g filter="url(#filter2_d_5_46)">
<path d="M147 60.5C147 68.5081 140.508 75 132.5 75C124.492 75 118 68.5081 118 60.5C118 52.4919 124.492 46 132.5 46C140.508 46 147 52.4919 147 60.5Z" stroke="black" stroke-width="2" shape-rendering="crispEdges"/>
</g>
<g filter="url(#filter3_d_5_46)">
<path d="M100.5 23C100.5 34.3218 91.3218 43.5 80 43.5C68.6782 43.5 59.5 34.3218 59.5 23C59.5 11.6782 68.6782 2.5 80 2.5C91.3218 2.5 100.5 11.6782 100.5 23Z" stroke="black" stroke-width="3" shape-rendering="crispEdges"/>
</g>
<line x1="5" y1="84" x2="150" y2="84" stroke="black" stroke-width="8" stroke-linecap="round"/>
<path fill-rule="evenodd" clip-rule="evenodd" d="M153.966 1.2345L73.0725 72.9325L79.2629 78L152.777 12.8425L153.966 1.2345Z" fill="black"/>
<path fill-rule="evenodd" clip-rule="evenodd" d="M2.58745 12.688L79.2629 78L85.353 72.8125L0.993958 0.955536L2.58745 12.688Z" fill="black"/>
<defs>
<filter id="filter0_d_5_46" x="13" y="50" width="33" height="33" filterUnits="userSpaceOnUse" color-interpolation-filters="sRGB">
<feFlood flood-opacity="0" result="BackgroundImageFix"/>
<feColorMatrix in="SourceAlpha" type="matrix" values="0 0 0 0 0 0 0 0 0 0 0 0 0 0 0 0 0 0 127 0" result="hardAlpha"/>
<feOffset dy="4"/>
<feGaussianBlur stdDeviation="2"/>
<feComposite in2="hardAlpha" operator="out"/>
<feColorMatrix type="matrix" values="0 0 0 0 0 0 0 0 0 0 0 0 0 0 0 0 0 0 0.25 0"/>
<feBlend mode="normal" in2="BackgroundImageFix" result="effect1_dropShadow_5_46"/>
<feBlend mode="normal" in="SourceGraphic" in2="effect1_dropShadow_5_46" result="shape"/>
</filter>
<filter id="filter1_i_5_46" x="1.27251" y="90.92" width="156.81" height="26.688" filterUnits="userSpaceOnUse" color-interpolation-filters="sRGB">
<feFlood flood-opacity="0" result="BackgroundImageFix"/>
<feBlend mode="normal" in="SourceGraphic" in2="BackgroundImageFix" result="shape"/>
<feColorMatrix in="SourceAlpha" type="matrix" values="0 0 0 0 0 0 0 0 0 0 0 0 0 0 0 0 0 0 127 0" result="hardAlpha"/>
<feOffset dy="4"/>
<feGaussianBlur stdDeviation="2"/>
<feComposite in2="hardAlpha" operator="arithmetic" k2="-1" k3="1"/>
<feColorMatrix type="matrix" values="0 0 0 0 0 0 0 0 0 0 0 0 0 0 0 0 0 0 0.25 0"/>
<feBlend mode="normal" in2="shape" result="effect1_innerShadow_5_46"/>
</filter>
<filter id="filter2_d_5_46" x="113" y="45" width="39" height="39" filterUnits="userSpaceOnUse" color-interpolation-filters="sRGB">
<feFlood flood-opacity="0" result="BackgroundImageFix"/>
<feColorMatrix in="SourceAlpha" type="matrix" values="0 0 0 0 0 0 0 0 0 0 0 0 0 0 0 0 0 0 127 0" result="hardAlpha"/>
<feOffset dy="4"/>
<feGaussianBlur stdDeviation="2"/>
<feComposite in2="hardAlpha" operator="out"/>
<feColorMatrix type="matrix" values="0 0 0 0 0 0 0 0 0 0 0 0 0 0 0 0 0 0 0.25 0"/>
<feBlend mode="normal" in2="BackgroundImageFix" result="effect1_dropShadow_5_46"/>
<feBlend mode="normal" in="SourceGraphic" in2="effect1_dropShadow_5_46" result="shape"/>
</filter>
<filter id="filter3_d_5_46" x="54" y="1" width="52" height="52" filterUnits="userSpaceOnUse" color-interpolation-filters="sRGB">
<feFlood flood-opacity="0" result="BackgroundImageFix"/>
<feColorMatrix in="SourceAlpha" type="matrix" values="0 0 0 0 0 0 0 0 0 0 0 0 0 0 0 0 0 0 127 0" result="hardAlpha"/>
<feOffset dy="4"/>
<feGaussianBlur stdDeviation="2"/>
<feComposite in2="hardAlpha" operator="out"/>
<feColorMatrix type="matrix" values="0 0 0 0 0 0 0 0 0 0 0 0 0 0 0 0 0 0 0.25 0"/>
<feBlend mode="normal" in2="BackgroundImageFix" result="effect1_dropShadow_5_46"/>
<feBlend mode="normal" in="SourceGraphic" in2="effect1_dropShadow_5_46" result="shape"/>
</filter>
</defs>
</svg>
